HIERARCHY
ROOT Hips
{
 OFFSET 0.000000 0.000000 0.000000
 CHANNELS 6 Xposition Yposition Zposition Yrotation Xrotation Zrotation
 JOINT Chest
 {
  OFFSET 0.000000 9.585900 0.002600
  CHANNELS 3 Yrotation Xrotation Zrotation
  JOINT Chest2
  {
   OFFSET 0.000000 9.601200 -0.005300
   CHANNELS 3 Yrotation Xrotation Zrotation
   JOINT Chest3
   {
    OFFSET 0.000000 9.561800 0.000000
    CHANNELS 3 Yrotation Xrotation Zrotation
    JOINT Chest4
    {
     OFFSET 0.000000 9.552100 0.000000
     CHANNELS 3 Yrotation Xrotation Zrotation
     JOINT Neck
     {
      OFFSET 0.000000 14.453000 0.000000
      CHANNELS 3 Yrotation Xrotation Zrotation
      JOINT Head
      {
       OFFSET 0.000000 8.936500 -0.011300
       CHANNELS 3 Yrotation Xrotation Zrotation
       End Site
       {
        OFFSET 0.000000 17.073600 -0.006000
       }
      }
     }
     JOINT RightCollar
     {
      OFFSET -2.921100 9.558500 0.000000
      CHANNELS 3 Yrotation Xrotation Zrotation
      JOINT RightShoulder
      {
       OFFSET -13.519700 0.000000 0.000000
       CHANNELS 3 Yrotation Xrotation Zrotation
       JOINT RightElbow
       {
        OFFSET 0.000000 -29.696600 0.000000
        CHANNELS 3 Yrotation Xrotation Zrotation
        JOINT RightWrist
        {
         OFFSET 0.000000 -24.004700 0.000000
         CHANNELS 3 Yrotation Xrotation Zrotation
         End Site
         {
          OFFSET 0.000000 -17.728500 0.000000
         }
        }
       }
      }
     }
     JOINT LeftCollar
     {
      OFFSET 2.921100 9.558500 0.000000
      CHANNELS 3 Yrotation Xrotation Zrotation
      JOINT LeftShoulder
      {
       OFFSET 13.519700 0.000000 0.000000
       CHANNELS 3 Yrotation Xrotation Zrotation
       JOINT LeftElbow
       {
        OFFSET 0.000000 -29.696600 0.000000
        CHANNELS 3 Yrotation Xrotation Zrotation
        JOINT LeftWrist
        {
         OFFSET 0.000000 -24.004700 0.000000
         CHANNELS 3 Yrotation Xrotation Zrotation
         End Site
         {
          OFFSET 0.000000 -17.728500 0.000000
         }
        }
       }
      }
     }
    }
   }
  }
 }
 JOINT RightHip
 {
  OFFSET -7.771700 -0.012900 -0.001300
  CHANNELS 3 Yrotation Xrotation Zrotation
  JOINT RightKnee
  {
   OFFSET 0.000000 -40.869800 0.001200
   CHANNELS 3 Yrotation Xrotation Zrotation
   JOINT RightAnkle
   {
    OFFSET 0.000000 -39.717900 0.002100
    CHANNELS 3 Yrotation Xrotation Zrotation
    JOINT RightToe
    {
     OFFSET 0.000000 -4.965400 11.033500
     CHANNELS 3 Yrotation Xrotation Zrotation
     End Site
     {
      OFFSET 0.000000 -1.423100 5.872300
     }
    }
   }
  }
 }
 JOINT LeftHip
 {
  OFFSET 7.771700 -0.012900 -0.001300
  CHANNELS 3 Yrotation Xrotation Zrotation
  JOINT LeftKnee
  {
   OFFSET 0.000000 -40.869800 0.001200
   CHANNELS 3 Yrotation Xrotation Zrotation
   JOINT LeftAnkle
   {
    OFFSET 0.000000 -39.717900 0.002100
    CHANNELS 3 Yrotation Xrotation Zrotation
    JOINT LeftToe
    {
     OFFSET 0.000000 -4.965400 11.033500
     CHANNELS 3 Yrotation Xrotation Zrotation
     End Site
     {
      OFFSET 0.000000 -1.423100 5.872300
     }
    }
   }
  }
 }
}
MOTION
Frames: 12
Frame Time: 0.008333
-128.540371 58.261966 105.761165 176.234579 -25.816534 -0.889268 1.944956 18.354861 2.846782 0.163157 2.110363 0.279084 0.276529 3.489036 0.465146 1.538832 15.985812 2.326330 -2.304904 15.857685 -2.319731 -3.456057 -6.364950 -3.488963 4.295655 -3.165654 -1.003621 16.219829 -19.008456 -20.095387 128.514770 -74.500990 -78.717252 15.418475 -16.274345 -47.534655 -7.461255 -3.284560 -4.363815 -2.873713 -15.067359 -2.566356 31.661595 -50.750225 -63.773889 6.580625 -5.010831 28.208296 2.079570 -49.324093 0.638462 -14.749495 67.358635 -19.061070 6.973987 22.960274 5.293195 -0.268567 -16.427522 2.034346 -5.085960 -46.763971 0.413669 24.310389 66.538277 22.311529 -17.016677 2.557748 -1.746738 -0.093239 -0.054426 -0.031749
-128.537093 58.264133 105.759077 176.240897 -25.819020 -0.897827 1.939653 18.361300 2.851150 0.164143 2.107684 0.279948 0.276489 3.489575 0.464821 1.539018 15.985660 2.325951 -2.323174 15.762368 -2.353573 -3.480132 -6.546587 -3.539381 4.292119 -3.159574 -1.005461 16.224342 -19.008635 -20.100438 128.539793 -74.500867 -78.748400 15.416191 -16.272347 -47.537531 -7.460580 -3.280498 -4.359781 -2.875302 -15.066018 -2.574954 31.661435 -50.756520 -63.772008 6.575980 -5.010067 28.204807 2.065314 -49.319671 0.642751 -14.771896 67.363699 -19.063989 6.969711 22.945771 5.268592 -0.262870 -16.420191 2.036884 -5.097037 -46.756905 0.422370 24.321288 66.533760 22.326289 -17.026776 2.552689 -1.756036 -0.088401 -0.052022 -0.028382
-128.534417 58.266340 105.756541 176.249364 -25.824184 -0.902186 1.932320 18.367233 2.851802 0.163944 2.109514 0.279178 0.276875 3.488263 0.465139 1.539697 15.985426 2.325401 -2.340406 15.671810 -2.388404 -3.504726 -6.726607 -3.588623 4.286106 -3.152454 -1.005867 16.226834 -19.006537 -20.104861 128.573917 -74.498709 -78.785931 15.417050 -16.257489 -47.547476 -7.462226 -3.276978 -4.355756 -2.874374 -15.068007 -2.579650 31.661715 -50.757470 -63.770980 6.575757 -5.007662 28.203383 2.079838 -49.306476 0.615486 -14.782071 67.367047 -19.041049 6.964544 22.916037 5.260528 -0.265925 -16.399248 2.028726 -5.104516 -46.748853 0.422259 24.333432 66.530099 22.343329 -17.036512 2.550447 -1.765626 -0.080834 -0.052082 -0.026611
-128.535912 58.268189 105.753802 176.267717 -25.829204 -0.885303 1.911098 18.375849 2.824488 0.164455 2.110413 0.279027 0.277891 3.489389 0.464836 1.543978 15.987983 2.324295 -2.362434 15.580103 -2.417367 -3.526348 -6.905723 -3.636740 4.270814 -3.151171 -0.999896 16.228464 -19.002521 -20.109159 128.600621 -74.496489 -78.814326 15.407408 -16.252051 -47.546122 -7.471847 -3.279640 -4.346928 -2.869974 -15.066321 -2.588431 31.657515 -50.762349 -63.768609 6.579547 -5.005122 28.204200 2.096094 -49.297166 0.572021 -14.790153 67.375253 -19.033091 6.946376 22.886135 5.255757 -0.255665 -16.378322 2.014565 -5.093490 -46.742140 0.384457 24.348235 66.526697 22.362133 -17.065921 2.532371 -1.783625 -0.061827 -0.037923 -0.015911
-128.533360 58.269986 105.750852 176.269172 -25.839429 -0.885625 1.910291 18.387954 2.820932 0.164862 2.112131 0.279028 0.280418 3.502458 0.460923 1.549614 15.996350 2.323726 -2.378261 15.474890 -2.441286 -3.545631 -7.084646 -3.682004 4.259294 -3.170674 -0.990788 16.229899 -18.997659 -20.112656 128.585796 -74.499533 -78.810314 15.411790 -16.264165 -47.542915 -7.476317 -3.296649 -4.336007 -2.865775 -15.063353 -2.598561 31.647037 -50.770989 -63.768240 6.578720 -5.005401 28.209100 2.114584 -49.281660 0.552871 -14.794446 67.379269 -19.013297 6.937143 22.868720 5.244989 -0.263035 -16.367298 2.015058 -5.095882 -46.727945 0.380660 24.360024 66.524070 22.375294 -17.061906 2.527023 -1.784403 -0.054779 -0.035854 -0.018486
-128.531410 58.270864 105.748920 176.266408 -25.845509 -0.882495 1.911921 18.398830 2.815079 0.165395 2.114187 0.278900 0.284357 3.503662 0.462153 1.557758 16.014570 2.320598 -2.394401 15.373806 -2.465533 -3.564906 -7.265167 -3.723995 4.247908 -3.196166 -0.983296 16.223228 -18.984321 -20.106875 128.590636 -74.491389 -78.817670 15.406006 -16.267464 -47.540760 -7.480692 -3.310400 -4.328715 -2.873141 -15.072360 -2.594968 31.657525 -50.752047 -63.777899 6.560166 -5.007953 28.209453 2.143143 -49.272503 0.532803 -14.814633 67.380806 -19.013088 6.932251 22.847494 5.248174 -0.257425 -16.350524 2.004417 -5.090491 -46.720004 0.373310 24.360013 66.523925 22.377688 -17.056176 2.524240 -1.783038 -0.059004 -0.035343 -0.021539
-128.530327 58.270655 105.748356 176.264320 -25.846051 -0.877351 1.922698 18.414854 2.810622 0.161566 2.105085 0.278874 0.281208 3.499654 0.464706 1.567983 16.042763 2.318566 -2.409663 15.275268 -2.490587 -3.583152 -7.448412 -3.764273 4.229936 -3.218094 -0.976337 16.221181 -18.973705 -20.099599 128.546597 -74.475391 -78.789973 15.396248 -16.282767 -47.524411 -7.485923 -3.325671 -4.324427 -2.873292 -15.074051 -2.599890 31.659907 -50.749985 -63.781537 6.562178 -5.006166 28.222265 2.162609 -49.270964 0.512495 -14.815213 67.382818 -19.002313 6.937590 22.827962 5.268850 -0.258579 -16.333501 1.982704 -5.083480 -46.719325 0.365484 24.358112 66.524411 22.376549 -17.048980 2.523393 -1.784092 -0.058855 -0.035201 -0.021863
-128.529783 58.270295 105.747412 176.260875 -25.853620 -0.870842 1.930939 18.434522 2.808822 0.161064 2.108094 0.277092 0.282403 3.505580 0.464379 1.574402 16.059186 2.319293 -2.421881 15.205445 -2.500876 -3.600965 -7.664690 -3.815094 4.220793 -3.240610 -0.974638 16.214670 -18.975580 -20.095990 128.525259 -74.466558 -78.772827 15.392181 -16.281861 -47.515996 -7.495115 -3.345846 -4.320077 -2.850405 -15.067991 -2.611200 31.650221 -50.751155 -63.789400 6.543575 -5.006988 28.215602 2.176054 -49.265975 0.499060 -14.813287 67.386695 -18.995356 6.943230 22.825316 5.276804 -0.264975 -16.331649 1.975878 -5.068708 -46.713108 0.348762 24.357861 66.530298 22.383151 -17.037940 2.517715 -1.783062 -0.060790 -0.034905 -0.022810
-128.529861 58.268787 105.748413 176.258172 -25.853037 -0.864033 1.934850 18.440190 2.804926 0.170292 2.136258 0.279757 0.284324 3.514313 0.464590 1.571007 16.057151 2.316182 -2.432750 15.133050 -2.511325 -3.613566 -7.878373 -3.863874 4.208748 -3.264698 -0.976681 16.215795 -18.988241 -20.096453 128.486306 -74.470784 -78.736798 15.397770 -16.285749 -47.513303 -7.505333 -3.373021 -4.313651 -2.828116 -15.067556 -2.619271 31.640538 -50.739184 -63.791962 6.537581 -5.014560 28.214769 2.179766 -49.271520 0.493968 -14.778568 67.389731 -18.967614 6.938816 22.835669 5.283878 -0.259996 -16.336932 1.970177 -5.062396 -46.715019 0.339026 24.339688 66.530127 22.370107 -17.032418 2.522114 -1.788482 -0.057919 -0.037067 -0.022922
-128.530304 58.266901 105.750102 176.256318 -25.852465 -0.857319 1.937481 18.445924 2.801097 0.170691 2.146452 0.279316 0.283259 3.504361 0.464383 1.578621 16.091470 2.314861 -2.441194 15.033835 -2.532975 -3.620172 -8.056414 -3.898917 4.198796 -3.273697 -0.978077 16.211204 -18.998359 -20.093547 128.482446 -74.464373 -78.736999 15.405256 -16.289335 -47.511041 -7.513742 -3.408726 -4.305183 -2.799740 -15.057391 -2.630012 31.624007 -50.725841 -63.791305 6.559649 -5.008040 28.231155 2.161633 -49.278520 0.501769 -14.744944 67.394950 -18.952589 6.945775 22.844115 5.294804 -0.262726 -16.342804 1.962855 -5.058460 -46.720468 0.331595 24.345871 66.532544 22.376143 -17.043677 2.528131 -1.786746 -0.059603 -0.041588 -0.027285
-128.530282 58.265525 105.750986 176.249207 -25.861449 -0.851459 1.944142 18.466718 2.799184 0.173617 2.148247 0.278286 0.282535 3.516179 0.465464 1.586647 16.102492 2.311440 -2.450057 14.886701 -2.577407 -3.622097 -8.170871 -3.908274 4.190314 -3.294372 -0.977838 16.189389 -18.977277 -20.070227 128.510197 -74.441637 -78.762791 15.386115 -16.280703 -47.488181 -7.512824 -3.426493 -4.293962 -2.796333 -15.067072 -2.636608 31.617162 -50.712323 -63.788235 6.564450 -5.006864 28.234298 2.134326 -49.274133 0.521972 -14.708246 67.396494 -18.937368 6.947981 22.856808 5.300688 -0.260865 -16.351065 1.955498 -5.055081 -46.712827 0.326077 24.337153 66.535279 22.372611 -17.036991 2.527059 -1.793057 -0.056943 -0.041802 -0.027247
-128.529679 58.264271 105.752147 176.241947 -25.871663 -0.848740 1.954113 18.485647 2.801202 0.173272 2.145173 0.277251 0.285869 3.531496 0.466420 1.587202 16.098032 2.309298 -2.451077 14.815091 -2.598787 -3.623682 -8.332680 -3.935079 4.186433 -3.295316 -0.977817 16.173639 -18.968448 -20.055532 128.521883 -74.429517 -78.771694 15.386248 -16.278348 -47.482086 -7.510367 -3.425810 -4.292397 -2.794177 -15.075490 -2.638084 31.611466 -50.690572 -63.778183 6.565543 -5.012095 28.233369 2.092212 -49.268996 0.551502 -14.668011 67.398535 -18.919402 6.958432 22.870787 5.297293 -0.266338 -16.361062 1.954757 -5.059399 -46.703070 0.331671 24.340374 66.535268 22.377076 -17.041135 2.526021 -1.803833 -0.050402 -0.041583 -0.024274
